<?xml version="1.0" encoding="UTF-8" standalone="no"?>
<svg xmlns="http://www.w3.org/2000/svg" xmlns:xlink="http://www.w3.org/1999/xlink"
     version="1.2" baseProfile="tiny-ps" width="819" height="819" viewBox="0 0 819 819"
     preserveAspectRatio="xMidYMid meet">
  <title>Logo Tool Center</title>
  <g transform="translate(0,819) scale(0.1,-0.1)" fill="#000000" stroke="none">
    <path d="M3795 8180 c-1149 -93 -2182 -637 -2895 -1526 -426 -531 -712 -1159
    -834 -1834 -47 -259 -60 -413 -60 -725 0 -311 13 -466 60 -725 210 -1161 904
    -2169 1912 -2779 506 -306 1066 -496 1677 -567 209 -25 671 -25 880 0 312 36
    564 92 860 191 1219 405 2175 1361 2580 2580 152 458 209 810 209 1300 0 490
    -57 842 -209 1300 -249 748 -702 1398 -1321 1895 -605 485 -1331 786 -2114
    876 -161 18 -591 26 -745 14z m-320 -2595 c208 -47 374 -119 550 -238 99 -67
    295 -256 365 -352 51 -69 130 -195 130 -207 0 -4 -197 -8 -438 -8 -418 0 -439
    1 -472 20 -175 100 -276 130 -440 130 -310 0 -577 -162 -728 -440 -77 -142
    -108 -308 -90 -482 30 -298 242 -573 523 -678 221 -82 489 -62 691 52 l51 28
    453 -2 453 -3 -73 -110 c-97 -146 -304 -355 -440 -444 -229 -151 -451 -226
    -737 -252 -301 -26 -601 41 -870 194 -139 80 -216 141 -339 270 -303 317 -462
    773 -415 1187 44 382 174 658 438 922 234 236 525 381 867 433 146 23 374 14
    521 -20z m-70 -930 c129 -52 216 -124 291 -241 l35 -54 723 0 724 0 69 69
    c104 104 194 143 332 143 179 0 327 -97 406 -265 48 -100 62 -194 45 -303 -59
    -398 -520 -553 -782 -264 l-63 70 -740 0 -740 0 -30 -48 c-69 -110 -202 -207
    -334 -246 -115 -34 -288 -15 -395 42 -52 28 -206 170 -206 190 0 9 50 12 178
    11 234 -2 301 17 385 110 68 75 82 114 82 226 0 113 -15 152 -85 229 -87 95
    -195 123 -422 112 -104 -6 -138 -4 -138 5 0 6 35 46 78 88 125 123 227 163
    407 158 93 -3 121 -8 180 -32z"/>
    <path d="M5514 4221 c-120 -73 -115 -230 10 -291 51 -24 99 -21 153 12 110 66
    103 222 -13 278 -51 25 -110 25 -150 1z"/>
  </g>
</svg>
